<svg xmlns="http://www.w3.org/2000/svg" width="251" height="114" xmlns:xlink="http://www.w3.org/1999/xlink"><ellipse cx="57.4693" cy="56.7027" rx="57.4693" ry="56.7027" fill="#fa8c0a"></ellipse><ellipse cx="56.6577" cy="56.9061" rx="45.9754" ry="45.3621" fill="#ffffff"></ellipse><ellipse cx="62.694" cy="62.5433" rx="20.1142" ry="20.6965" fill="#6b6868"></ellipse><ellipse cx="68.8967" cy="61.0798" rx="6.3216" ry="5.6703" fill="#ffffff"></ellipse><path d="M136.4432,57.6921c0,-31.316 25.7299,-56.7027 57.4693,-56.7027c31.7394,0 57.4693,25.3866 57.4693,56.7027c0,31.316 -25.7299,56.7027 -57.4693,56.7027c-31.7394,0 -57.4693,-25.3866 -57.4693,-56.7027z" fill="#fa8c0a"></path><path d="M147.1254,57.8956c0,-25.0528 20.5839,-45.3621 45.9754,-45.3621c25.3915,0 45.9754,20.3093 45.9754,45.3621c0,25.0528 -20.5839,45.3621 -45.9754,45.3621c-25.3915,0 -45.9754,-20.3093 -45.9754,-45.3621z" fill="#ffffff"></path><path d="M181.7901,63.8138c0,-11.4303 9.0055,-20.6965 20.1142,-20.6965c11.1088,0 20.1142,9.2661 20.1142,20.6965c0,11.4303 -9.0055,20.6965 -20.1142,20.6965c-11.1088,0 -20.1142,-9.2661 -20.1142,-20.6965z" fill="#6b6868"></path><path d="M185.1051,63.4802c0,-3.1316 2.573,-5.6703 5.7469,-5.6703c3.1739,0 5.7469,2.5387 5.7469,5.6703c0,3.1316 -2.573,5.6703 -5.7469,5.6703c-3.1739,0 -5.7469,-2.5387 -5.7469,-5.6703z" fill="#ffffff"></path><rect x="109.9355" y="47.1886" width="29.9438" height="29.8614" fill="#fa8c0a"></rect></svg>