<svg xmlns="http://www.w3.org/2000/svg" width="1240" height="572" xmlns:xlink="http://www.w3.org/1999/xlink"><ellipse cx="283.4646" cy="283.4646" rx="283.4646" ry="283.4646" fill="#fa8c0a"></ellipse><ellipse cx="279.4614" cy="284.4816" rx="226.7717" ry="226.7717" fill="#ffffff"></ellipse><ellipse cx="309.2355" cy="312.663" rx="99.2126" ry="103.4646" fill="#6b6868"></ellipse><ellipse cx="339.83" cy="305.3465" rx="31.1811" ry="28.3465" fill="#ffffff"></ellipse><path d="M673,288.4111c0,-156.5532 126.9114,-283.4646 283.4646,-283.4646c156.5532,0 283.4646,126.9114 283.4646,283.4646c0,156.5532 -126.9114,283.4646 -283.4646,283.4646c-156.5532,0 -283.4646,-126.9114 -283.4646,-283.4646z" fill="#fa8c0a"></path><path d="M725.6898,289.4281c0,-125.2425 101.5291,-226.7717 226.7716,-226.7717c125.2425,0 226.7717,101.5291 226.7717,226.7717c0,125.2425 -101.5291,226.7717 -226.7717,226.7717c-125.2425,0 -226.7716,-101.5291 -226.7716,-226.7717z" fill="#ffffff"></path><path d="M896.6718,319.0142c0,-57.1419 44.419,-103.4646 99.2126,-103.4646c54.7936,0 99.2126,46.3226 99.2126,103.4646c0,57.1419 -44.419,103.4646 -99.2126,103.4646c-54.7936,0 -99.2126,-46.3227 -99.2126,-103.4646z" fill="#6b6868"></path><path d="M913.0229,317.3465c0,-15.6553 12.6912,-28.3465 28.3465,-28.3465c15.6553,0 28.3464,12.6912 28.3464,28.3465c0,15.6553 -12.6911,28.3464 -28.3464,28.3464c-15.6553,0 -28.3465,-12.6911 -28.3465,-28.3464z" fill="#ffffff"></path><rect x="542.2519" y="235.9027" width="147.6964" height="149.2814" fill="#fa8c0a"></rect></svg>